<?xml version="1.0" encoding="UTF-8" standalone="no"?>
<svg
   width="3mm"
   height="3mm"
   viewBox="0 0 15 15"
   version="1.1"
   xml:space="preserve"
   style="clip-rule:evenodd;fill-rule:evenodd;stroke-linejoin:round;stroke-miterlimit:2"
   id="svg1"
   sodipodi:docname="pcb-logo-3mm.svg"
   inkscape:version="1.4 (e7c3feb100, 2024-10-09)"
   xmlns:inkscape="http://www.inkscape.org/namespaces/inkscape"
   xmlns:sodipodi="http://sodipodi.sourceforge.net/DTD/sodipodi-0.dtd"
   xmlns="http://www.w3.org/2000/svg"
   xmlns:svg="http://www.w3.org/2000/svg"><defs
   id="defs1" /><sodipodi:namedview
   id="namedview1"
   pagecolor="#ffffff"
   bordercolor="#000000"
   borderopacity="0.25"
   inkscape:showpageshadow="2"
   inkscape:pageopacity="0.0"
   inkscape:pagecheckerboard="0"
   inkscape:deskcolor="#d1d1d1"
   inkscape:zoom="98.133331"
   inkscape:cx="6.1396061"
   inkscape:cy="10.979959"
   inkscape:window-width="2544"
   inkscape:window-height="1356"
   inkscape:window-x="0"
   inkscape:window-y="0"
   inkscape:window-maximized="0"
   inkscape:current-layer="g1"
   inkscape:document-units="mm" />
    <g
   transform="matrix(0.133308,0,0,0.133308,-55.411786,14.170162)"
   id="g1"
   style="fill:#000000">
        <g
   id="g2"
   transform="matrix(0.93368075,0,0,0.93382354,27.52159,-5.9182669)"><path
     d="m 436.04239,-0.6116491 26.74542,-70.5277409 -1.19008,-3.31969 q -2.38016,-6.764651 -5.76248,-8.267901 -3.38232,-1.50326 -8.83162,-0.25055 l -1.37799,0.25055 -3.38232,-11.211791 q 1.37797,-0.62635 4.07131,-1.0648 2.75597,-0.43845 5.69985,-0.43845 7.89209,0 13.40402,4.008681 5.57459,4.00868 8.95691,12.96558 l 22.17302,58.188518 q 2.56805,6.76465 6.01302,8.393176 3.44496,1.628528 8.45581,0.563721 l 1.50326,-0.375814 3.38232,11.0865109 q -1.37799,0.563721 -4.00868,1.064806 -2.63069,0.501085 -5.69984,0.501085 -7.64156,0 -13.15349,-4.008681 -5.4493,-4.0086816 -8.70636,-13.0282159 l -8.95689,-24.302632 q -1.69117,-4.697674 -3.00652,-9.20744 -1.31535,-4.509767 -2.50542,-9.019533 -1.12744,4.509766 -2.31753,9.082168 -1.12744,4.509768 -2.75595,9.144805 l -13.84248,39.7736379 z"
     id="text1"
     style="font-weight:500;font-size:240.046px;font-family:Inter-Medium, Inter;stroke-width:0.534388"
     aria-label="λ" /></g>
    <rect
   style="fill:none;stroke:#000000;stroke-width:3.75513;stroke-linecap:round;stroke-linejoin:round;stroke-dasharray:none"
   id="rect1"
   width="112.51695"
   height="112.51695"
   x="415.66959"
   y="-106.2942" /></g>
</svg>
