<?xml version="1.0" encoding="UTF-8" standalone="no"?>
<svg
   role="img"
   viewBox="0 0 24 24"
   version="1.1"
   id="svg1"
   sodipodi:docname="opensourcehardware-3mm.svg"
   width="3mm"
   height="3mm"
   inkscape:version="1.4 (e7c3feb100, 2024-10-09)"
   xmlns:inkscape="http://www.inkscape.org/namespaces/inkscape"
   xmlns:sodipodi="http://sodipodi.sourceforge.net/DTD/sodipodi-0.dtd"
   xmlns="http://www.w3.org/2000/svg"
   xmlns:svg="http://www.w3.org/2000/svg"
   xmlns:rdf="http://www.w3.org/1999/02/22-rdf-syntax-ns#"
   xmlns:cc="http://creativecommons.org/ns#"
   xmlns:dc="http://purl.org/dc/elements/1.1/">
  <defs
     id="defs1" />
  <sodipodi:namedview
     id="namedview1"
     pagecolor="#ffffff"
     bordercolor="#000000"
     borderopacity="0.25"
     inkscape:showpageshadow="2"
     inkscape:pageopacity="0.0"
     inkscape:pagecheckerboard="0"
     inkscape:deskcolor="#d1d1d1"
     inkscape:zoom="30.666667"
     inkscape:cx="0.048913043"
     inkscape:cy="8.7228261"
     inkscape:window-width="2544"
     inkscape:window-height="1356"
     inkscape:window-x="0"
     inkscape:window-y="0"
     inkscape:window-maximized="0"
     inkscape:current-layer="svg1"
     inkscape:document-units="mm" />
  <title
     id="title1">Open Source Hardware</title>
  <path
     d="m 21.890054,11.604226 c 0.05916,0.01083 0.108315,0.06999 0.108315,0.130812 v 2.527087 a 0.13831078,0.13831078 0 0 1 -0.108315,0.130812 l -2.395444,0.44576 a 0.20246697,0.20246697 0 0 0 -0.141642,0.125814 l -0.748212,1.868029 a 0.20996576,0.20996576 0 0 0 0.01417,0.190802 l 1.360611,1.982176 a 0.13914397,0.13914397 0 0 1 -0.01666,0.169973 l -1.786374,1.786374 a 0.13914397,0.13914397 0 0 1 -0.16914,0.01583 l -1.948015,-1.336449 a 0.19163541,0.19163541 0 0 0 -0.186636,-0.0067 l -0.858194,0.458259 a 0.10081689,0.10081689 0 0 1 -0.141644,-0.05166 L 13.10233,15.762677 a 0.13414479,0.13414479 0 0 1 0.05166,-0.159974 l 0.214965,-0.131646 c 0.03999,-0.025 0.09415,-0.06665 0.135811,-0.104149 a 2.7945442,2.7945442 0 1 0 -3.00951,0 c 0.04166,0.03833 0.09582,0.07999 0.135812,0.104149 l 0.214965,0.131646 a 0.13331159,0.13331159 0 0 1 0.05166,0.159974 L 9.1271366,20.040348 A 0.10081689,0.10081689 0 0 1 8.985493,20.09284 L 8.1272888,19.634604 a 0.19163541,0.19163541 0 0 0 -0.1866362,0.0058 L 5.992637,20.977707 A 0.13997717,0.13997717 0 0 1 5.8226647,20.961876 L 4.0354654,19.175493 A 0.13914397,0.13914397 0 0 1 4.0196346,19.00552 l 1.3606115,-1.983009 a 0.20913256,0.20913256 0 0 0 0.014164,-0.189969 L 4.6470322,14.964511 A 0.20330018,0.20330018 0 0 0 4.5053887,14.839531 L 2.109946,14.392104 A 0.13831078,0.13831078 0 0 1 2.0016304,14.261292 v -2.526254 c 0,-0.06082 0.049159,-0.119981 0.1083156,-0.130812 L 4.5653789,11.147633 A 0.21079895,0.21079895 0 0 0 4.7111884,11.022654 L 5.4635657,9.2662733 A 0.20496658,0.20496658 0 0 0 5.451901,9.0771375 L 4.0213009,6.9916444 A 0.13914397,0.13914397 0 0 1 4.0371317,6.8225053 L 5.823507,5.0344636 a 0.13831078,0.13831078 0 0 1 0.1699723,-0.015831 l 2.1213208,1.4572623 c 0.049992,0.034161 0.1358111,0.039993 0.1908021,0.013331 l 1.7022228,-0.696553 c 0.05832,-0.019164 0.114148,-0.08332 0.124979,-0.1441432 L 10.605227,3.109777 a 0.13914397,0.13914397 0 0 1 0.130812,-0.1091489 h 2.527921 c 0.06082,0 0.119148,0.049159 0.130812,0.1083157 l 0.472423,2.5395858 a 0.20829936,0.20829936 0 0 0 0.12498,0.1441431 l 1.702222,0.6965531 a 0.20996576,0.20996576 0 0 0 0.191636,-0.013331 l 2.12132,-1.4564291 a 0.13831078,0.13831078 0 0 1 0.16914,0.016664 l 1.786374,1.7863753 c 0.04333,0.042493 0.04999,0.1191471 0.01666,0.1691391 l -1.431433,2.0854931 a 0.20413337,0.20413337 0 0 0 -0.01167,0.1891358 l 0.752378,1.756381 a 0.21329854,0.21329854 0 0 0 0.145811,0.124979 l 2.454599,0.456593"
     id="path1"
     style="stroke-width:0.833197" />
  <metadata
     id="metadata1">
    <rdf:RDF>
      <cc:Work
         rdf:about="">
        <dc:title>Open Source Hardware</dc:title>
      </cc:Work>
    </rdf:RDF>
  </metadata>
</svg>
