<?xml version="1.0" encoding="UTF-8" standalone="no"?>
<!-- Created with Inkscape (http://www.inkscape.org/) -->

<svg
   width="48mm"
   height="38.720001mm"
   viewBox="0 0 48 38.720001"
   version="1.1"
   id="svg1"
   xml:space="preserve"
   inkscape:version="1.4 (e7c3feb100, 2024-10-09)"
   sodipodi:docname="pattern.svg"
   xmlns:inkscape="http://www.inkscape.org/namespaces/inkscape"
   xmlns:sodipodi="http://sodipodi.sourceforge.net/DTD/sodipodi-0.dtd"
   xmlns="http://www.w3.org/2000/svg"
   xmlns:svg="http://www.w3.org/2000/svg"><sodipodi:namedview
     id="namedview1"
     pagecolor="#ffffff"
     bordercolor="#000000"
     borderopacity="0.25"
     inkscape:showpageshadow="2"
     inkscape:pageopacity="0.0"
     inkscape:pagecheckerboard="true"
     inkscape:deskcolor="#d1d1d1"
     inkscape:document-units="mm"
     showgrid="true"
     inkscape:zoom="1"
     inkscape:cx="-73.5"
     inkscape:cy="-35.5"
     inkscape:window-width="2544"
     inkscape:window-height="1356"
     inkscape:window-x="0"
     inkscape:window-y="0"
     inkscape:window-maximized="0"
     inkscape:current-layer="svg1"
     showguides="true"><inkscape:grid
       id="grid1"
       units="mm"
       originx="0"
       originy="0"
       spacingx="0.50000001"
       spacingy="0.49999999"
       empcolor="#0099e5"
       empopacity="0.30196078"
       color="#0099e5"
       opacity="0.14901961"
       empspacing="5"
       enabled="false"
       visible="true" /><sodipodi:guide
       position="9.5828776,20.299968"
       orientation="0,-1"
       id="guide4"
       inkscape:locked="false" /><sodipodi:guide
       position="14,20.160001"
       orientation="1,0"
       id="guide9"
       inkscape:locked="false" /><sodipodi:guide
       position="24,20.359968"
       orientation="1,0"
       id="guide18"
       inkscape:locked="false" /><sodipodi:guide
       position="25,20.359969"
       orientation="-1,0"
       id="guide20"
       inkscape:locked="false"
       inkscape:label=""
       inkscape:color="rgb(0,134,229)" /><sodipodi:guide
       position="25.403133,25.06664"
       orientation="0,1"
       id="guide21"
       inkscape:locked="false"
       inkscape:label=""
       inkscape:color="rgb(0,134,229)" /><sodipodi:guide
       position="-12.733073,37.66"
       orientation="0,1"
       id="guide1"
       inkscape:locked="false"
       inkscape:label=""
       inkscape:color="rgb(0,134,229)" /><sodipodi:guide
       position="0,0.93999985"
       orientation="0,1"
       id="guide2"
       inkscape:locked="false"
       inkscape:label=""
       inkscape:color="rgb(0,134,229)" /><sodipodi:guide
       position="0,-1.0600002"
       orientation="0,1"
       id="guide11"
       inkscape:locked="false"
       inkscape:label=""
       inkscape:color="rgb(0,134,229)" /><sodipodi:guide
       position="0,39.66"
       orientation="0,1"
       id="guide12"
       inkscape:locked="false"
       inkscape:label=""
       inkscape:color="rgb(0,134,229)" /><sodipodi:guide
       position="19.093666,18.3"
       orientation="0,1"
       id="guide22"
       inkscape:locked="false"
       inkscape:label=""
       inkscape:color="rgb(0,134,229)" /></sodipodi:namedview><defs
     id="defs1" /><g
     inkscape:label="Layer 1"
     inkscape:groupmode="layer"
     id="layer1"
     style="display:none"><g
       id="g24"
       style="display:none;opacity:0.5"><path
         style="fill:#0200ff;stroke-width:0"
         d="M 2.0000003,1 H 22 L 12,18.300032 Z"
         id="path1" /><path
         style="fill:#0200ff;stroke-width:0"
         d="M 26,1 H 46 L 36,18.300032 Z"
         id="path1-3" /><path
         style="display:inline;opacity:1;fill:#0200ff;stroke-width:0"
         d="M 34,18.300032 H 14 L 24,1 Z"
         id="path1-3-2"
         sodipodi:nodetypes="cccc" /><path
         style="fill:#0200ff;stroke-width:0"
         d="M 58,18.300032 H 38 L 48,1 Z"
         id="path1-3-2-7"
         sodipodi:nodetypes="cccc" /><path
         style="fill:#0200ff;stroke-width:0"
         d="M 10,18.300032 H -10 L 0,1 Z"
         id="path1-3-2-7-2"
         sodipodi:nodetypes="cccc" /><path
         style="fill:#0200ff;stroke-width:0"
         d="m 46.000001,37.600032 h -20 l 10,-17.300032 z"
         id="path1-9" /><path
         style="fill:#0200ff;stroke-width:0"
         d="M 22.000001,37.600032 H 2.0000012 L 12.000001,20.3 Z"
         id="path1-3-22" /><path
         style="fill:#0200ff;stroke-width:0"
         d="m 14.000001,20.3 h 20 l -10,17.300032 z"
         id="path1-3-2-8"
         sodipodi:nodetypes="cccc" /><path
         style="fill:#0200ff;stroke-width:0"
         d="M -9.9999988,20.3 H 10.000001 L 1.2378601e-6,37.600032 Z"
         id="path1-3-2-7-9"
         sodipodi:nodetypes="cccc" /><path
         style="fill:#0200ff;stroke-width:0"
         d="m 38.000001,20.3 h 20 l -10,17.300032 z"
         id="path1-3-2-7-2-7"
         sodipodi:nodetypes="cccc" /></g><g
       id="g21"
       style="display:none"><path
         style="fill:none;stroke:#000000;stroke-width:0.12;stroke-dasharray:none;stroke-opacity:1"
         d="m 25,13.53336 -2.752039,4.766672 H 34 L 31.247961,13.53336 Z"
         id="path21" /><path
         style="fill:none;stroke:#000000;stroke-width:0.12;stroke-dasharray:none;stroke-opacity:1"
         d="M 24.371941,11.177564 H 29.87602 L 24,1 21.247961,5.7666722 Z"
         id="path21-9" /><path
         style="fill:none;stroke:#000000;stroke-width:0.12;stroke-dasharray:none;stroke-opacity:1"
         d="M 22.628058,12.889138 19.876019,8.1224661 14,18.300031 l 5.504079,-1e-6 z"
         id="path21-9-4" /></g><g
       id="g43"
       style="display:inline"
       transform="translate(2.5388044e-7,0.06)"><path
         id="path24"
         style="fill:none;stroke:#000000;stroke-width:0.12;stroke-dasharray:none;stroke-opacity:1"
         d="M 22.628058,12.889138 19.876019,8.1224661 14,18.300031 l 5.504079,-1e-6 z m 1.743883,-1.711574 H 29.87602 L 24,1 21.247961,5.7666722 Z M 25,13.53336 22.247961,18.300032 H 34 L 31.247961,13.53336 Z" /><path
         id="path25"
         style="fill:none;stroke:#000000;stroke-width:0.12;stroke-dasharray:none;stroke-opacity:1"
         d="M 46.628058,12.889138 43.876019,8.1224661 38,18.300031 l 5.504079,-1e-6 z m 1.743883,-1.711574 H 53.87602 L 48,1 45.247961,5.7666722 Z M 49,13.53336 46.247961,18.300032 H 58 L 55.247961,13.53336 Z" /><path
         id="path26"
         style="fill:none;stroke:#000000;stroke-width:0.12;stroke-dasharray:none;stroke-opacity:1"
         d="M -1.371942,12.889138 -4.123981,8.1224661 -10,18.300031 l 5.504079,-1e-6 z M 0.371941,11.177564 H 5.87602 L 0,1 -2.752039,5.7666722 Z M 1,13.53336 -1.752039,18.300032 H 10 L 7.247961,13.53336 Z" /><path
         id="path27"
         style="fill:none;stroke:#000000;stroke-width:0.12;stroke-dasharray:none;stroke-opacity:1"
         d="m 10.627982,32.249138 -2.7520395,-4.766672 -5.876019,10.177565 5.504079,-10e-7 z m 1.743883,-1.711574 h 5.504079 L 11.999924,20.36 9.2478845,25.126672 Z m 0.628059,2.355796 -2.752039,4.766672 H 21.999924 L 19.247885,32.89336 Z" /><path
         id="path28"
         style="fill:none;stroke:#000000;stroke-width:0.12;stroke-dasharray:none;stroke-opacity:1"
         d="m 34.627982,32.249138 -2.752039,-4.766672 -5.876019,10.177565 5.504079,-10e-7 z m 1.743883,-1.711574 h 5.504079 L 35.999924,20.36 33.247885,25.126672 Z m 0.628059,2.355796 -2.752039,4.766672 H 45.999924 L 43.247885,32.89336 Z" /><path
         id="path29"
         style="fill:none;stroke:#000000;stroke-width:0.12;stroke-dasharray:none;stroke-opacity:1"
         d="m 25.371865,25.710894 2.752039,4.766672 5.876019,-10.177565 -5.504079,10e-7 z m -1.743883,1.711574 h -5.504079 l 5.87602,10.177564 2.752039,-4.766672 z M 22.999923,25.066672 25.751962,20.3 H 13.999923 l 2.752039,4.766672 z" /><path
         id="path30"
         style="fill:none;stroke:#000000;stroke-width:0.12;stroke-dasharray:none;stroke-opacity:1"
         d="m 1.3718645,25.710894 2.752039,4.766672 5.876019,-10.177565 -5.504079,10e-7 z m -1.74388299,1.711574 H -5.8760975 L -7.7490255e-5,37.600032 2.7519615,32.83336 Z M -1.0000775,25.066672 1.7519615,20.3 H -10.000077 l 2.7520385,4.766672 z" /><path
         id="path31"
         style="fill:none;stroke:#000000;stroke-width:0.12;stroke-dasharray:none;stroke-opacity:1"
         d="m 49.371865,25.710894 2.752039,4.766672 5.876019,-10.177565 -5.504079,10e-7 z m -1.743883,1.711574 h -5.504079 l 5.87602,10.177564 2.752039,-4.766672 z M 46.999923,25.066672 49.751962,20.3 H 37.999923 l 2.752039,4.766672 z" /><path
         id="path32"
         style="fill:none;stroke:#000000;stroke-width:0.12;stroke-dasharray:none;stroke-opacity:1"
         d="m 37.371941,6.350894 2.752039,4.766672 5.876019,-10.177565 -5.504079,1e-6 z m -1.743883,1.711574 h -5.504079 l 5.87602,10.177564 2.752039,-4.766672 z M 34.999999,5.706672 37.752038,0.94 H 25.999999 l 2.752039,4.766672 z" /><path
         id="path33"
         style="fill:none;stroke:#000000;stroke-width:0.12;stroke-dasharray:none;stroke-opacity:1"
         d="m 13.371941,6.350894 2.752039,4.766672 5.876019,-10.177565 -5.504079,1e-6 z M 11.628058,8.062468 H 6.123979 l 5.87602,10.177564 2.752039,-4.766672 z M 10.999999,5.706672 13.752038,0.94 H 1.999999 l 2.752039,4.766672 z" /></g></g><path
     id="path23"
     style="display:inline;fill:none;stroke:#000000;stroke-width:0.12;stroke-dasharray:none;stroke-opacity:1"
     d="M -34.000509 -57.13972 L -31.248222 -52.373086 L -25.000541 -52.373086 L -22.248255 -57.13972 L -34.000509 -57.13972 z M -19.504236 -57.13972 L -22.628593 -51.728681 L -19.876306 -46.962047 L -14.000179 -57.13972 L -19.504236 -57.13972 z M -10.000423 -57.13972 L -7.2486534 -52.373086 L -1.000456 -52.373086 L 1.7518308 -57.13972 L -10.000423 -57.13972 z M 4.4953326 -57.13972 L 1.3714923 -51.728681 L 4.1232623 -46.962563 L 4.1232623 -46.962047 L 4.123779 -46.962047 L 9.9993894 -57.13972 L 4.4953326 -57.13972 z M 13.999662 -57.13972 L 16.751432 -52.373086 L 22.999629 -52.373086 L 25.751399 -57.13972 L 13.999662 -57.13972 z M 28.495418 -57.13972 L 25.371578 -51.728681 L 28.123348 -46.962047 L 33.999475 -57.13972 L 28.495418 -57.13972 z M 37.999231 -57.13972 L 40.751517 -52.373086 L 46.999198 -52.373086 L 49.751485 -57.13972 L 37.999231 -57.13972 z M 52.495503 -57.13972 L 49.371146 -51.728681 L 52.123433 -46.962047 L 57.99956 -57.13972 L 52.495503 -57.13972 z M 61.999316 -57.13972 L 64.751603 -52.373086 L 70.999284 -52.373086 L 73.75157 -57.13972 L 61.999316 -57.13972 z M 76.495072 -57.13972 L 73.371232 -51.728681 L 76.123519 -46.962047 L 81.999129 -57.13972 L 76.495072 -57.13972 z M -36.000387 -57.079775 L -38.752674 -52.313141 L -35.628316 -46.902102 L -30.12426 -46.902102 L -36.000387 -57.079775 z M -12.000301 -57.079775 L -14.752588 -52.313141 L -11.628231 -46.902102 L -6.1241742 -46.902102 L -12.000301 -57.079775 z M 11.999784 -57.079775 L 11.999267 -57.079259 L 9.2474973 -52.313141 L 12.371338 -46.902102 L 17.875394 -46.902102 L 11.999784 -57.079775 z M 35.999353 -57.079775 L 33.247066 -52.313141 L 36.371423 -46.902102 L 41.87548 -46.902102 L 35.999353 -57.079775 z M 59.999438 -57.079775 L 57.247151 -52.313141 L 60.371509 -46.902102 L 65.875565 -46.902102 L 59.999438 -57.079775 z M 83.999524 -57.079775 L 81.247237 -52.313141 L 84.371077 -46.902102 L 89.875134 -46.902102 L 83.999524 -57.079775 z M -29.876213 -50.017157 L -24.000602 -39.839484 L -21.248316 -44.606118 L -24.372156 -50.017157 L -29.876213 -50.017157 z M -5.8766441 -50.017157 L -0.0005170182 -39.839484 L 2.7517698 -44.606118 L -0.37207057 -50.017157 L -5.8766441 -50.017157 z M 18.123441 -50.017157 L 23.999568 -39.839484 L 26.751338 -44.606118 L 23.627498 -50.017157 L 18.123441 -50.017157 z M 42.123527 -50.017157 L 47.999137 -39.839484 L 50.751424 -44.606118 L 47.627584 -50.017157 L 42.123527 -50.017157 z M 66.123095 -50.017157 L 71.999223 -39.839484 L 74.751509 -44.606118 L 73.189848 -47.311896 L 71.627669 -50.017157 L 66.123095 -50.017157 z M -40.124166 -49.957213 L -46.000293 -39.779539 L -40.496236 -39.779539 L -37.372396 -45.190579 L -40.124166 -49.957213 z M -16.124597 -49.957213 L -22.000208 -39.779539 L -16.496151 -39.779539 L -13.372311 -45.190579 L -16.124597 -49.957213 z M 7.875488 -49.957213 L 1.9993609 -39.779539 L 7.5039345 -39.779539 L 10.627775 -45.190579 L 7.875488 -49.957213 z M 31.875573 -49.957213 L 25.999446 -39.779539 L 31.503503 -39.779539 L 34.627343 -45.190579 L 31.875573 -49.957213 z M 55.875142 -49.957213 L 49.999532 -39.779539 L 55.503589 -39.779539 L 58.627429 -45.190579 L 55.875142 -49.957213 z M 79.875228 -49.957213 L 73.9991 -39.779539 L 79.503674 -39.779539 L 82.627514 -45.190579 L 79.875228 -49.957213 z M -35.000448 -44.546174 L -37.752218 -39.779539 L -26.00048 -39.779539 L -28.75225 -44.546174 L -35.000448 -44.546174 z M -11.000362 -44.546174 L -13.752649 -39.779539 L -2.0003949 -39.779539 L -4.7526817 -44.546174 L -11.000362 -44.546174 z M 12.999206 -44.546174 L 10.247436 -39.779539 L 21.999691 -39.779539 L 19.247404 -44.546174 L 12.999206 -44.546174 z M 36.999292 -44.546174 L 34.247522 -39.779539 L 45.999259 -39.779539 L 43.247489 -44.546174 L 36.999292 -44.546174 z M 60.999377 -44.546174 L 58.24709 -39.779539 L 69.999345 -39.779539 L 67.247058 -44.546174 L 60.999377 -44.546174 z M 84.999463 -44.546174 L 82.247176 -39.779539 L 93.99943 -39.779539 L 91.247143 -44.546174 L 84.999463 -44.546174 z M -21.999691 -37.780178 L -21.999174 -37.779661 L -22.000208 -37.779661 L -19.248438 -33.013027 L -13.00024 -33.013027 L -12.999724 -33.013544 L -10.24847 -37.779661 L -10.247954 -37.780178 L -21.999691 -37.780178 z M -7.503935 -37.780178 L -7.5044518 -37.779661 L -10.627775 -32.369139 L -10.628292 -32.368622 L -7.8765221 -27.601988 L -7.8760053 -27.602505 L -2.0003949 -37.779661 L -1.9998782 -37.780178 L -7.503935 -37.780178 z M 1.9998777 -37.780178 L 2.0003944 -37.779661 L 1.9993609 -37.779661 L 4.7516477 -33.013027 L 10.999328 -33.013027 L 10.999845 -33.013544 L 13.751615 -37.779661 L 13.752132 -37.780178 L 1.9998777 -37.780178 z M 16.49615 -37.780178 L 16.495634 -37.779661 L 13.371793 -32.369139 L 13.371277 -32.368622 L 16.123563 -27.601988 L 16.12408 -27.602505 L 21.999691 -37.779661 L 22.000207 -37.780178 L 16.49615 -37.780178 z M 25.999963 -37.780178 L 26.00048 -37.779661 L 25.999446 -37.779661 L 28.751216 -33.013027 L 34.999414 -33.013027 L 34.999931 -33.013544 L 37.751701 -37.779661 L 37.752217 -37.780178 L 37.751701 -37.780178 L 25.999963 -37.780178 z M 40.495719 -37.780178 L 40.495202 -37.779661 L 37.371879 -32.369139 L 37.371362 -32.368622 L 40.123132 -27.602505 L 40.123132 -27.601988 L 40.123649 -27.601988 L 40.123649 -27.602505 L 45.999259 -37.779661 L 45.999776 -37.780178 L 40.495719 -37.780178 z M 50.000049 -37.780178 L 50.000565 -37.779661 L 49.999532 -37.779661 L 52.751302 -33.013027 L 58.999499 -33.013027 L 59.000016 -33.013544 L 61.751269 -37.779661 L 61.751786 -37.780178 L 50.000049 -37.780178 z M 64.495805 -37.780178 L 64.495288 -37.779661 L 61.371964 -32.369139 L 61.371448 -32.368622 L 64.123218 -27.601988 L 64.123734 -27.602505 L 69.999345 -37.779661 L 69.999861 -37.780178 L 64.495805 -37.780178 z M -46.000293 -37.779661 L -43.248523 -33.013027 L -37.000326 -33.013027 L -34.248556 -37.779661 L -46.000293 -37.779661 z M -31.504537 -37.779661 L -34.628378 -32.368622 L -31.876608 -27.601988 L -26.00048 -37.779661 L -31.504537 -37.779661 z M 73.9991 -37.779661 L 76.751387 -33.013027 L 82.999068 -33.013027 L 85.751355 -37.779661 L 73.9991 -37.779661 z M 88.495373 -37.779661 L 85.371016 -32.368622 L 88.123303 -27.601988 L 93.99943 -37.779661 L 88.495373 -37.779661 z M -24.000086 -37.720234 L -24.000602 -37.719717 L -26.751856 -32.953599 L -26.752372 -32.953083 L -23.628532 -27.542043 L -18.124475 -27.542043 L -18.124992 -27.54256 L -18.123959 -27.54256 L -24.000086 -37.720234 z M -2.5388044e-07 -37.720234 L -0.0005170182 -37.719717 L -2.752287 -32.953599 L -2.7528038 -32.953083 L 0.37155329 -27.542043 L 5.8756101 -27.542043 L 5.8750933 -27.54256 L 5.8761269 -27.54256 L -2.5388044e-07 -37.720234 z M 24.000085 -37.720234 L 23.999568 -37.719717 L 21.247798 -32.953599 L 21.247282 -32.953083 L 24.371639 -27.542043 L 29.875696 -27.542043 L 29.875179 -27.54256 L 29.876212 -27.54256 L 24.000085 -37.720234 z M 48.000171 -37.720234 L 47.999654 -37.719717 L 47.999137 -37.7192 L 45.247884 -32.953599 L 45.247367 -32.953083 L 48.371207 -27.542043 L 53.875264 -27.542043 L 53.874747 -27.54256 L 53.875781 -27.54256 L 48.000171 -37.720234 z M 71.999739 -37.720234 L 71.999223 -37.719717 L 69.247969 -32.953599 L 69.247453 -32.953083 L 72.371293 -27.542043 L 77.87535 -27.542043 L 77.874833 -27.54256 L 77.875866 -27.54256 L 71.999739 -37.720234 z M -17.875912 -30.657616 L -17.875395 -30.657099 L -17.876428 -30.657099 L -12.000301 -20.479425 L -11.999785 -20.479942 L -9.2485313 -25.24606 L -9.2480146 -25.246576 L -12.371855 -30.657616 L -17.875912 -30.657616 z M 6.1241737 -30.657616 L 6.1246905 -30.657099 L 6.123657 -30.657099 L 11.999267 -20.479425 L 11.999784 -20.479942 L 14.751554 -25.24606 L 14.752071 -25.246576 L 11.628231 -30.657616 L 6.1241737 -30.657616 z M 30.123742 -30.657616 L 30.124259 -30.657099 L 30.123226 -30.657099 L 35.999353 -20.479425 L 35.99987 -20.479942 L 38.75164 -25.24606 L 38.752156 -25.246576 L 35.628316 -30.657616 L 35.627799 -30.657616 L 30.123742 -30.657616 z M 54.123828 -30.657616 L 54.124345 -30.657099 L 54.123311 -30.657099 L 59.999438 -20.479425 L 59.999955 -20.479942 L 62.751208 -25.24606 L 62.751725 -25.246576 L 59.627885 -30.657616 L 54.123828 -30.657616 z M -41.876514 -30.657099 L -36.000387 -20.479425 L -33.248617 -25.24606 L -36.372457 -30.657099 L -41.876514 -30.657099 z M 78.123397 -30.657099 L 83.999524 -20.479425 L 86.751294 -25.24606 L 83.627453 -30.657099 L 78.123397 -30.657099 z M -28.123865 -30.597671 L -28.124382 -30.597154 L -33.999992 -20.419998 L -34.000509 -20.419481 L -28.496452 -20.419481 L -28.495935 -20.419998 L -25.372612 -25.83052 L -25.372095 -25.831037 L -28.123865 -30.597671 z M -4.1237796 -30.597671 L -4.1242963 -30.597154 L -9.9999067 -20.419998 L -10.000423 -20.419481 L -4.4963666 -20.419481 L -4.4958499 -20.419998 L -1.3725263 -25.83052 L -1.3720095 -25.831037 L -4.1237796 -30.597671 z M 19.875789 -30.597671 L 19.875272 -30.597154 L 14.000179 -20.419998 L 13.999662 -20.419481 L 19.503719 -20.419481 L 19.504236 -20.419998 L 22.627559 -25.83052 L 22.628076 -25.831037 L 19.875789 -30.597671 z M 43.875875 -30.597671 L 43.875358 -30.597154 L 37.999747 -20.419998 L 37.999231 -20.419481 L 43.503288 -20.419481 L 43.503804 -20.419481 L 43.503804 -20.419998 L 46.627645 -25.83052 L 46.628161 -25.831037 L 43.875875 -30.597671 z M 67.87596 -30.597671 L 67.875443 -30.597154 L 61.999833 -20.419998 L 61.999316 -20.419481 L 67.503373 -20.419481 L 67.50389 -20.419998 L 70.627213 -25.83052 L 70.62773 -25.831037 L 67.87596 -30.597671 z M -23.000147 -25.186632 L -23.000664 -25.186115 L -25.751917 -20.419998 L -25.752434 -20.419481 L -14.000696 -20.419481 L -14.001213 -20.419998 L -14.000179 -20.419998 L -16.751949 -25.186632 L -23.000147 -25.186632 z M 0.99993871 -25.186632 L 0.99942195 -25.186115 L -1.7518313 -20.419998 L -1.7523481 -20.419481 L 9.9993894 -20.419481 L 9.9988726 -20.419998 L 9.9999062 -20.419998 L 7.2481361 -25.186632 L 0.99993871 -25.186632 z M 25.000024 -25.186632 L 24.999507 -25.186115 L 22.247737 -20.419998 L 22.247221 -20.419481 L 33.999475 -20.419481 L 33.998958 -20.419998 L 33.999992 -20.419998 L 31.247705 -25.186632 L 25.000024 -25.186632 z M 48.999593 -25.186632 L 48.999076 -25.186115 L 46.247823 -20.419998 L 46.247306 -20.419481 L 57.999044 -20.419481 L 57.99956 -20.419481 L 57.99956 -20.419998 L 58.000077 -20.419998 L 55.24779 -25.186632 L 48.999593 -25.186632 z M 72.999678 -25.186632 L 72.999162 -25.186115 L 70.247908 -20.419998 L 70.247392 -20.419481 L 81.999129 -20.419481 L 81.998612 -20.419998 L 81.999646 -20.419998 L 79.247876 -25.186632 L 72.999678 -25.186632 z M -33.999992 -18.42012 L -33.999475 -18.419603 L -34.000509 -18.419603 L -31.248222 -13.652969 L -25.000541 -13.652969 L -25.000025 -13.653486 L -22.248255 -18.419603 L -22.247738 -18.42012 L -33.999992 -18.42012 z M -19.503719 -18.42012 L -19.504236 -18.419603 L -22.628076 -13.00908 L -22.628593 -13.008564 L -19.876306 -8.2419295 L -19.87579 -8.2424463 L -14.000179 -18.419603 L -13.999663 -18.42012 L -19.503719 -18.42012 z M -9.9999067 -18.42012 L -9.9993899 -18.419603 L -10.000423 -18.419603 L -7.2486534 -13.652969 L -1.000456 -13.652969 L -0.99993922 -13.653486 L 1.7518308 -18.419603 L 1.7523476 -18.42012 L -9.9999067 -18.42012 z M 4.4958494 -18.42012 L 4.4953326 -18.419603 L 1.372009 -13.00908 L 1.3714923 -13.008564 L 4.1232623 -8.2424463 L 4.1232623 -8.2419295 L 4.123779 -8.2419295 L 4.123779 -8.2424463 L 9.9993894 -18.419603 L 9.9999062 -18.42012 L 4.4958494 -18.42012 z M 14.000179 -18.42012 L 14.000696 -18.419603 L 13.999662 -18.419603 L 16.751432 -13.652969 L 22.999629 -13.652969 L 23.000146 -13.653486 L 25.751399 -18.419603 L 25.751916 -18.42012 L 14.000179 -18.42012 z M 28.495935 -18.42012 L 28.495418 -18.419603 L 25.372094 -13.00908 L 25.371578 -13.008564 L 28.123348 -8.2419295 L 28.123864 -8.2424463 L 33.999475 -18.419603 L 33.999992 -18.42012 L 28.495935 -18.42012 z M 37.999747 -18.42012 L 38.000264 -18.419603 L 37.999231 -18.419603 L 40.751517 -13.652969 L 46.999198 -13.652969 L 46.999715 -13.653486 L 49.751485 -18.419603 L 49.752002 -18.42012 L 37.999747 -18.42012 z M 52.49602 -18.42012 L 52.495503 -18.419603 L 49.371663 -13.00908 L 49.371146 -13.008564 L 52.123433 -8.2419295 L 52.12395 -8.2424463 L 57.99956 -18.419603 L 58.000077 -18.42012 L 52.49602 -18.42012 z M 61.999833 -18.42012 L 62.00035 -18.419603 L 61.999316 -18.419603 L 64.751603 -13.652969 L 70.999284 -13.652969 L 70.9998 -13.653486 L 73.75157 -18.419603 L 73.752087 -18.42012 L 61.999833 -18.42012 z M 76.495589 -18.42012 L 76.495072 -18.419603 L 73.371749 -13.00908 L 73.371232 -13.008564 L 76.123519 -8.2419295 L 76.124035 -8.2424463 L 81.999129 -18.419603 L 81.999646 -18.42012 L 76.495589 -18.42012 z M -35.99987 -18.360175 L -36.000387 -18.359658 L -38.752157 -13.593541 L -38.752674 -13.593024 L -35.628316 -8.1819849 L -30.12426 -8.1819849 L -30.124776 -8.1825016 L -30.123743 -8.1825016 L -35.99987 -18.360175 z M -11.999785 -18.360175 L -12.000301 -18.359658 L -14.752071 -13.593541 L -14.752588 -13.593024 L -11.628231 -8.1819849 L -6.1241742 -8.1819849 L -6.124691 -8.1825016 L -6.1236575 -8.1825016 L -11.999785 -18.360175 z M 12.000301 -18.360175 L 11.999784 -18.359658 L 11.999267 -18.359658 L 11.999267 -18.359141 L 9.2480141 -13.593541 L 9.2474973 -13.593024 L 12.371338 -8.1819849 L 17.875394 -8.1819849 L 17.874878 -8.1825016 L 17.875911 -8.1825016 L 12.000301 -18.360175 z M 35.99987 -18.360175 L 35.999353 -18.359658 L 33.247583 -13.593541 L 33.247066 -13.593024 L 36.371423 -8.1819849 L 41.87548 -8.1819849 L 41.874963 -8.1825016 L 41.875997 -8.1825016 L 35.99987 -18.360175 z M 59.999955 -18.360175 L 59.999438 -18.359658 L 57.247668 -13.593541 L 57.247151 -13.593024 L 60.371509 -8.1819849 L 65.875565 -8.1819849 L 65.875049 -8.1825016 L 65.876082 -8.1825016 L 59.999955 -18.360175 z M 84.00004 -18.360175 L 83.999524 -18.359658 L 81.247754 -13.593541 L 81.247237 -13.593024 L 84.371077 -8.1819849 L 89.875134 -8.1819849 L 89.874617 -8.1825016 L 89.875651 -8.1825016 L 84.00004 -18.360175 z M -29.875696 -11.297557 L -29.875179 -11.29704 L -29.876213 -11.29704 L -24.000602 -1.1193669 L -24.000086 -1.1198836 L -21.248316 -5.886001 L -21.247799 -5.8865177 L -24.371639 -11.297557 L -29.875696 -11.297557 z M -5.8761274 -11.297557 L -5.8756106 -11.29704 L -5.8766441 -11.29704 L -0.0005170182 -1.1193669 L -2.5388044e-07 -1.1198836 L 2.7517698 -5.886001 L 2.7522865 -5.8865177 L -0.3715538 -11.297557 L -5.8761274 -11.297557 z M 18.123958 -11.297557 L 18.124475 -11.29704 L 18.123441 -11.29704 L 23.999568 -1.1193669 L 24.000085 -1.1198836 L 26.751338 -5.886001 L 26.751855 -5.8865177 L 23.628015 -11.297557 L 18.123958 -11.297557 z M 42.124044 -11.297557 L 42.12456 -11.29704 L 42.123527 -11.29704 L 47.999137 -1.1193669 L 47.999654 -1.1198836 L 50.751424 -5.886001 L 50.751941 -5.8865177 L 47.6281 -11.297557 L 42.124044 -11.297557 z M 66.123612 -11.297557 L 66.124129 -11.29704 L 66.123095 -11.29704 L 71.999223 -1.1193669 L 71.999739 -1.1198836 L 74.751509 -5.886001 L 74.752026 -5.8865177 L 71.628186 -11.297557 L 66.123612 -11.297557 z M -40.123649 -11.237612 L -40.124166 -11.237096 L -45.999776 -1.059939 L -46.000293 -1.0594222 L -40.496236 -1.0594222 L -40.49572 -1.059939 L -37.372396 -6.4704614 L -37.371879 -6.4709782 L -40.123649 -11.237612 z M -16.124081 -11.237612 L -16.124597 -11.237096 L -21.999691 -1.059939 L -22.000208 -1.0594222 L -16.496151 -1.0594222 L -16.495634 -1.059939 L -13.372311 -6.4704614 L -13.371794 -6.4709782 L -16.124081 -11.237612 z M 7.8760048 -11.237612 L 7.875488 -11.237096 L 1.9998777 -1.059939 L 1.9993609 -1.0594222 L 7.5034177 -1.0594222 L 7.5039345 -1.0594222 L 7.5044512 -1.059939 L 10.627775 -6.4704614 L 10.628292 -6.4709782 L 7.8760048 -11.237612 z M 31.87609 -11.237612 L 31.875573 -11.237096 L 25.999963 -1.059939 L 25.999446 -1.0594222 L 31.503503 -1.0594222 L 31.50402 -1.059939 L 34.627343 -6.4704614 L 34.62786 -6.4709782 L 31.87609 -11.237612 z M 55.875659 -11.237612 L 55.875142 -11.237096 L 50.000049 -1.059939 L 49.999532 -1.0594222 L 55.503589 -1.0594222 L 55.504105 -1.059939 L 58.627429 -6.4704614 L 58.627946 -6.4709782 L 55.875659 -11.237612 z M 79.875744 -11.237612 L 79.875228 -11.237096 L 73.999617 -1.059939 L 73.9991 -1.0594222 L 79.503674 -1.0594222 L 79.504191 -1.059939 L 82.627514 -6.4704614 L 82.628031 -6.4709782 L 79.875744 -11.237612 z M -34.999931 -5.8265731 L -35.000448 -5.8260563 L -37.751701 -1.059939 L -37.752218 -1.0594222 L -26.00048 -1.0594222 L -26.000997 -1.059939 L -25.999964 -1.059939 L -28.751734 -5.8265731 L -34.999931 -5.8265731 z M -10.999846 -5.8265731 L -11.000362 -5.8260563 L -13.752132 -1.059939 L -13.752649 -1.0594222 L -2.0003949 -1.0594222 L -2.0009117 -1.059939 L -1.9998782 -1.059939 L -4.752165 -5.8265731 L -10.999846 -5.8265731 z M 12.999723 -5.8265731 L 12.999206 -5.8260563 L 10.247953 -1.059939 L 10.247436 -1.0594222 L 21.999174 -1.0594222 L 21.999174 -1.059939 L 22.000207 -1.059939 L 19.24792 -5.8265731 L 12.999723 -5.8265731 z M 36.999809 -5.8265731 L 36.999292 -5.8260563 L 34.248038 -1.059939 L 34.247522 -1.0594222 L 45.999259 -1.0594222 L 45.998742 -1.059939 L 45.999776 -1.059939 L 43.248006 -5.8265731 L 36.999809 -5.8265731 z M 60.999894 -5.8265731 L 60.999377 -5.8260563 L 58.247607 -1.059939 L 58.24709 -1.0594222 L 69.999345 -1.0594222 L 69.998828 -1.059939 L 69.999861 -1.059939 L 67.247575 -5.8265731 L 60.999894 -5.8265731 z M 84.999979 -5.8265731 L 84.999463 -5.8260563 L 82.247693 -1.059939 L 82.247176 -1.0594222 L 93.99943 -1.0594222 L 93.998913 -1.059939 L 93.999947 -1.059939 L 91.24766 -5.8265731 L 84.999979 -5.8265731 z M -45.999776 0.93993896 L -45.99926 0.94045573 L -46.000293 0.94045573 L -43.248523 5.7070898 L -37.000326 5.7070898 L -36.999809 5.7065731 L -34.248556 0.94045573 L -34.248039 0.93993896 L -45.999776 0.93993896 z M -31.50402 0.93993896 L -31.504537 0.94045573 L -34.627861 6.3509782 L -34.628378 6.351495 L -31.876608 11.118129 L -31.876091 11.117612 L -26.00048 0.94045573 L -25.999964 0.93993896 L -31.50402 0.93993896 z M -21.999691 0.93993896 L -21.999174 0.94045573 L -22.000208 0.94045573 L -19.248438 5.7070898 L -13.00024 5.7070898 L -12.999724 5.7065731 L -10.24847 0.94045573 L -10.247954 0.93993896 L -21.999691 0.93993896 z M -7.503935 0.93993896 L -7.5044518 0.94045573 L -10.627775 6.3509782 L -10.628292 6.351495 L -7.8765221 11.118129 L -7.8760053 11.117612 L -2.0003949 0.94045573 L -1.9998782 0.93993896 L -7.503935 0.93993896 z M 1.9998777 0.93993896 L 2.0003944 0.94045573 L 1.9993609 0.94045573 L 4.7516477 5.7070898 L 10.999328 5.7070898 L 10.999845 5.7065731 L 13.751615 0.94045573 L 13.752132 0.93993896 L 1.9998777 0.93993896 z M 16.49615 0.93993896 L 16.495634 0.94045573 L 13.371793 6.3509782 L 13.371277 6.351495 L 16.123563 11.118129 L 16.12408 11.117612 L 21.999691 0.94045573 L 22.000207 0.93993896 L 16.49615 0.93993896 z M 25.999963 0.93993896 L 26.00048 0.94045573 L 25.999446 0.94045573 L 28.751216 5.7070898 L 34.999414 5.7070898 L 34.999931 5.7065731 L 37.751701 0.94045573 L 37.752217 0.93993896 L 37.751701 0.93993896 L 25.999963 0.93993896 z M 40.495719 0.93993896 L 40.495202 0.94045573 L 37.371879 6.3509782 L 37.371362 6.351495 L 40.123132 11.117612 L 40.123132 11.118129 L 40.123649 11.118129 L 40.123649 11.117612 L 45.999259 0.94045573 L 45.999776 0.93993896 L 40.495719 0.93993896 z M 50.000049 0.93993896 L 50.000565 0.94045573 L 49.999532 0.94045573 L 52.751302 5.7070898 L 58.999499 5.7070898 L 59.000016 5.7065731 L 61.751269 0.94045573 L 61.751786 0.93993896 L 50.000049 0.93993896 z M 64.495805 0.93993896 L 64.495288 0.94045573 L 61.371964 6.3509782 L 61.371448 6.351495 L 64.123218 11.118129 L 64.123734 11.117612 L 69.999345 0.94045573 L 69.999861 0.93993896 L 64.495805 0.93993896 z M 73.999617 0.93993896 L 74.000134 0.94045573 L 73.9991 0.94045573 L 76.751387 5.7070898 L 82.999068 5.7070898 L 82.999585 5.7065731 L 85.751355 0.94045573 L 85.751871 0.93993896 L 73.999617 0.93993896 z M 88.49589 0.93993896 L 88.495373 0.94045573 L 85.371533 6.3509782 L 85.371016 6.351495 L 88.123303 11.118129 L 88.12382 11.117612 L 93.99943 0.94045573 L 93.999947 0.93993896 L 88.49589 0.93993896 z M -24.000086 0.99988363 L -24.000602 1.0004004 L -26.751856 5.7665177 L -26.752372 5.7670345 L -23.628532 11.178074 L -18.124475 11.178074 L -18.124992 11.177557 L -18.123959 11.177557 L -24.000086 0.99988363 z M -2.5388044e-07 0.99988363 L -0.0005170182 1.0004004 L -2.752287 5.7665177 L -2.7528038 5.7670345 L 0.37155329 11.178074 L 5.8756101 11.178074 L 5.8750933 11.177557 L 5.8761269 11.177557 L -2.5388044e-07 0.99988363 z M 24.000085 0.99988363 L 23.999568 1.0004004 L 21.247798 5.7665177 L 21.247282 5.7670345 L 24.371639 11.178074 L 29.875696 11.178074 L 29.875179 11.177557 L 29.876212 11.177557 L 24.000085 0.99988363 z M 48.000171 0.99988363 L 47.999654 1.0004004 L 47.999137 1.0009172 L 45.247884 5.7665177 L 45.247367 5.7670345 L 48.371207 11.178074 L 53.875264 11.178074 L 53.874747 11.177557 L 53.875781 11.177557 L 48.000171 0.99988363 z M 71.999739 0.99988363 L 71.999223 1.0004004 L 69.247969 5.7665177 L 69.247453 5.7670345 L 72.371293 11.178074 L 77.87535 11.178074 L 77.874833 11.177557 L 77.875866 11.177557 L 71.999739 0.99988363 z M -41.875997 8.0625016 L -41.87548 8.0630184 L -41.876514 8.0630184 L -36.000387 18.240692 L -35.99987 18.240175 L -33.248617 13.474058 L -33.2481 13.473541 L -36.37194 8.0625016 L -41.875997 8.0625016 z M -17.875912 8.0625016 L -17.875395 8.0630184 L -17.876428 8.0630184 L -12.000301 18.240692 L -11.999785 18.240175 L -9.2485313 13.474058 L -9.2480146 13.473541 L -12.371855 8.0625016 L -17.875912 8.0625016 z M 6.1241737 8.0625016 L 6.1246905 8.0630184 L 6.123657 8.0630184 L 11.999267 18.240692 L 11.999784 18.240175 L 14.751554 13.474058 L 14.752071 13.473541 L 11.628231 8.0625016 L 6.1241737 8.0625016 z M 30.123742 8.0625016 L 30.124259 8.0630184 L 30.123226 8.0630184 L 35.999353 18.240692 L 35.99987 18.240175 L 38.75164 13.474058 L 38.752156 13.473541 L 35.628316 8.0625016 L 35.627799 8.0625016 L 30.123742 8.0625016 z M 54.123828 8.0625016 L 54.124345 8.0630184 L 54.123311 8.0630184 L 59.999438 18.240692 L 59.999955 18.240175 L 62.751208 13.474058 L 62.751725 13.473541 L 59.627885 8.0625016 L 54.123828 8.0625016 z M 78.123913 8.0625016 L 78.12443 8.0630184 L 78.123397 8.0630184 L 83.999524 18.240692 L 84.00004 18.240175 L 86.751294 13.474058 L 86.75181 13.473541 L 83.62797 8.0625016 L 78.123913 8.0625016 z M -28.123865 8.1224463 L -28.124382 8.1229631 L -33.999992 18.30012 L -34.000509 18.300636 L -28.496452 18.300636 L -28.495935 18.30012 L -25.372612 12.889597 L -25.372095 12.88908 L -28.123865 8.1224463 z M -4.1237796 8.1224463 L -4.1242963 8.1229631 L -9.9999067 18.30012 L -10.000423 18.300636 L -4.4963666 18.300636 L -4.4958499 18.30012 L -1.3725263 12.889597 L -1.3720095 12.88908 L -4.1237796 8.1224463 z M 19.875789 8.1224463 L 19.875272 8.1229631 L 14.000179 18.30012 L 13.999662 18.300636 L 19.503719 18.300636 L 19.504236 18.30012 L 22.627559 12.889597 L 22.628076 12.88908 L 19.875789 8.1224463 z M 43.875875 8.1224463 L 43.875358 8.1229631 L 37.999747 18.30012 L 37.999231 18.300636 L 43.503804 18.300636 L 43.503804 18.30012 L 46.627645 12.889597 L 46.628161 12.88908 L 43.875875 8.1224463 z M 67.87596 8.1224463 L 67.875443 8.1229631 L 61.999833 18.30012 L 61.999316 18.300636 L 67.503373 18.300636 L 67.50389 18.30012 L 70.627213 12.889597 L 70.62773 12.88908 L 67.87596 8.1224463 z M -23.000147 13.533486 L -23.000664 13.534002 L -25.751917 18.30012 L -25.752434 18.300636 L -14.000696 18.300636 L -14.001213 18.30012 L -14.000179 18.30012 L -16.751949 13.533486 L -23.000147 13.533486 z M 0.99993871 13.533486 L 0.99942195 13.534002 L -1.7518313 18.30012 L -1.7523481 18.300636 L 9.9993894 18.300636 L 9.9988726 18.30012 L 9.9999062 18.30012 L 7.2481361 13.533486 L 0.99993871 13.533486 z M 25.000024 13.533486 L 24.999507 13.534002 L 22.247737 18.30012 L 22.247221 18.300636 L 33.999475 18.300636 L 33.998958 18.30012 L 33.999992 18.30012 L 31.247705 13.533486 L 25.000024 13.533486 z M 48.999593 13.533486 L 48.999076 13.534002 L 46.247823 18.30012 L 46.247306 18.300636 L 57.99956 18.300636 L 57.99956 18.30012 L 58.000077 18.30012 L 55.24779 13.533486 L 48.999593 13.533486 z M 72.999678 13.533486 L 72.999162 13.534002 L 70.247908 18.30012 L 70.247392 18.300636 L 81.999129 18.300636 L 81.998612 18.30012 L 81.999646 18.30012 L 79.247876 13.533486 L 72.999678 13.533486 z M -33.999992 20.299998 L -31.247705 25.066632 L -25.000025 25.066632 L -22.247738 20.299998 L -33.999992 20.299998 z M -19.503719 20.299998 L -22.628076 25.711037 L -19.87579 30.477671 L -13.999663 20.299998 L -19.503719 20.299998 z M -9.9999067 20.299998 L -7.2481366 25.066632 L -0.99993922 25.066632 L 1.7523476 20.299998 L -9.9999067 20.299998 z M 4.4958494 20.299998 L 1.372009 25.711037 L 4.123779 30.477154 L 4.123779 30.477671 L 4.1242958 30.477671 L 9.9999062 20.299998 L 4.4958494 20.299998 z M 14.000179 20.299998 L 16.751949 25.066632 L 23.000146 25.066632 L 25.751916 20.299998 L 14.000179 20.299998 z M 28.495935 20.299998 L 25.372094 25.711037 L 28.123864 30.477671 L 33.999992 20.299998 L 28.495935 20.299998 z M 37.999747 20.299998 L 40.752034 25.066632 L 46.999715 25.066632 L 49.752002 20.299998 L 37.999747 20.299998 z M 52.49602 20.299998 L 49.371663 25.711037 L 52.12395 30.477671 L 58.000077 20.299998 L 52.49602 20.299998 z M 61.999833 20.299998 L 64.75212 25.066632 L 70.9998 25.066632 L 73.752087 20.299998 L 61.999833 20.299998 z M 76.495589 20.299998 L 73.371749 25.711037 L 76.124035 30.477671 L 81.999646 20.299998 L 76.495589 20.299998 z M -35.99987 20.359942 L -38.752157 25.126576 L -35.6278 30.537616 L -30.123743 30.537616 L -35.99987 20.359942 z M -11.999785 20.359942 L -14.752071 25.126576 L -11.627714 30.537616 L -6.1236575 30.537616 L -11.999785 20.359942 z M 12.000301 20.359942 L 11.999784 20.360459 L 9.2480141 25.126576 L 12.371854 30.537616 L 17.875911 30.537616 L 12.000301 20.359942 z M 35.99987 20.359942 L 33.247583 25.126576 L 36.37194 30.537616 L 41.875997 30.537616 L 35.99987 20.359942 z M 59.999955 20.359942 L 57.247668 25.126576 L 60.372025 30.537616 L 65.876082 30.537616 L 59.999955 20.359942 z M 84.00004 20.359942 L 81.247754 25.126576 L 84.371594 30.537616 L 89.875651 30.537616 L 84.00004 20.359942 z M -29.875696 27.42256 L -24.000086 37.600234 L -21.247799 32.833599 L -24.371639 27.42256 L -29.875696 27.42256 z M -5.8761274 27.42256 L -2.5388044e-07 37.600234 L 2.7522865 32.833599 L -0.3715538 27.42256 L -5.8761274 27.42256 z M 18.123958 27.42256 L 24.000085 37.600234 L 26.751855 32.833599 L 23.628015 27.42256 L 18.123958 27.42256 z M 42.124044 27.42256 L 47.999654 37.600234 L 50.751941 32.833599 L 47.6281 27.42256 L 42.124044 27.42256 z M 66.123612 27.42256 L 71.999739 37.600234 L 74.752026 32.833599 L 71.628186 27.42256 L 66.123612 27.42256 z M -40.123649 27.482505 L -45.999776 37.660178 L -40.49572 37.660178 L -37.371879 32.249139 L -40.123649 27.482505 z M -16.124081 27.482505 L -21.999691 37.660178 L -16.495634 37.660178 L -13.371794 32.249139 L -16.124081 27.482505 z M 7.8760048 27.482505 L 1.9998777 37.660178 L 7.5044512 37.660178 L 10.628292 32.249139 L 7.8760048 27.482505 z M 31.87609 27.482505 L 25.999963 37.660178 L 31.50402 37.660178 L 34.62786 32.249139 L 31.87609 27.482505 z M 55.875659 27.482505 L 50.000049 37.660178 L 55.504105 37.660178 L 58.627946 32.249139 L 55.875659 27.482505 z M 79.875744 27.482505 L 73.999617 37.660178 L 79.504191 37.660178 L 82.628031 32.249139 L 79.875744 27.482505 z M -34.999931 32.893544 L -37.751701 37.660178 L -25.999964 37.660178 L -28.751734 32.893544 L -34.999931 32.893544 z M -10.999846 32.893544 L -13.752132 37.660178 L -1.9998782 37.660178 L -4.752165 32.893544 L -10.999846 32.893544 z M 12.999723 32.893544 L 10.247953 37.660178 L 22.000207 37.660178 L 19.24792 32.893544 L 12.999723 32.893544 z M 36.999809 32.893544 L 34.248038 37.660178 L 45.999776 37.660178 L 43.248006 32.893544 L 36.999809 32.893544 z M 60.999894 32.893544 L 58.247607 37.660178 L 69.999861 37.660178 L 67.247575 32.893544 L 60.999894 32.893544 z M 84.999979 32.893544 L 82.247693 37.660178 L 93.999947 37.660178 L 91.24766 32.893544 L 84.999979 32.893544 z M -45.999776 39.660056 L -43.248006 44.42669 L -36.999809 44.42669 L -34.248039 39.660056 L -45.999776 39.660056 z M -31.50402 39.660056 L -34.627861 45.071095 L -31.876091 49.837729 L -25.999964 39.660056 L -31.50402 39.660056 z M -21.999691 39.660056 L -19.247921 44.42669 L -12.999724 44.42669 L -10.247954 39.660056 L -21.999691 39.660056 z M -7.503935 39.660056 L -10.627775 45.071095 L -7.8760053 49.837729 L -1.9998782 39.660056 L -7.503935 39.660056 z M 1.9998777 39.660056 L 4.7521645 44.42669 L 10.999845 44.42669 L 13.752132 39.660056 L 1.9998777 39.660056 z M 16.49615 39.660056 L 13.371793 45.071095 L 16.12408 49.837729 L 22.000207 39.660056 L 16.49615 39.660056 z M 25.999963 39.660056 L 28.751733 44.42669 L 34.999931 44.42669 L 37.752217 39.660056 L 37.751701 39.660056 L 25.999963 39.660056 z M 40.495719 39.660056 L 37.371879 45.071095 L 40.123649 49.837213 L 40.123649 49.837729 L 40.124166 49.837729 L 45.999776 39.660056 L 40.495719 39.660056 z M 50.000049 39.660056 L 52.751819 44.42669 L 59.000016 44.42669 L 61.751786 39.660056 L 50.000049 39.660056 z M 64.495805 39.660056 L 61.371964 45.071095 L 64.123734 49.837729 L 69.999861 39.660056 L 64.495805 39.660056 z M 73.999617 39.660056 L 76.751904 44.42669 L 82.999585 44.42669 L 85.751871 39.660056 L 73.999617 39.660056 z M 88.49589 39.660056 L 85.371533 45.071095 L 88.12382 49.837729 L 93.999947 39.660056 L 88.49589 39.660056 z M -24.000086 39.720001 L -26.751856 44.486635 L -23.628015 49.897674 L -18.123959 49.897674 L -24.000086 39.720001 z M -2.5388044e-07 39.720001 L -2.752287 44.486635 L 0.37207006 49.897674 L 5.8761269 49.897674 L -2.5388044e-07 39.720001 z M 24.000085 39.720001 L 21.247798 44.486635 L 24.372156 49.897674 L 29.876212 49.897674 L 24.000085 39.720001 z M 48.000171 39.720001 L 47.999654 39.720518 L 45.247884 44.486635 L 48.371724 49.897674 L 53.875781 49.897674 L 48.000171 39.720001 z M 71.999739 39.720001 L 69.247969 44.486635 L 72.37181 49.897674 L 77.875866 49.897674 L 71.999739 39.720001 z M -41.875997 46.782619 L -35.99987 56.960292 L -33.2481 52.193658 L -36.37194 46.782619 L -41.875997 46.782619 z M -17.875912 46.782619 L -11.999785 56.960292 L -9.2480146 52.193658 L -12.371855 46.782619 L -17.875912 46.782619 z M 6.1241737 46.782619 L 11.999784 56.960292 L 12.000301 56.959775 L 14.752071 52.193658 L 11.628231 46.782619 L 6.1241737 46.782619 z M 30.123742 46.782619 L 35.99987 56.960292 L 38.752156 52.193658 L 35.628316 46.782619 L 35.627799 46.782619 L 30.123742 46.782619 z M 54.123828 46.782619 L 59.999955 56.960292 L 62.751725 52.193658 L 59.627885 46.782619 L 54.123828 46.782619 z M 78.123913 46.782619 L 84.00004 56.960292 L 86.75181 52.193658 L 83.62797 46.782619 L 78.123913 46.782619 z M -28.123865 46.842563 L -33.999992 57.020237 L -28.495935 57.020237 L -25.372095 51.609198 L -28.123865 46.842563 z M -4.1237796 46.842563 L -9.9999067 57.020237 L -4.4958499 57.020237 L -1.3720095 51.609198 L -4.1237796 46.842563 z M 19.875789 46.842563 L 14.000179 57.020237 L 19.504236 57.020237 L 22.628076 51.609198 L 19.875789 46.842563 z M 43.875875 46.842563 L 37.999747 57.020237 L 43.503804 57.020237 L 43.504321 57.020237 L 46.628161 51.609198 L 43.875875 46.842563 z M 67.87596 46.842563 L 61.999833 57.020237 L 67.50389 57.020237 L 70.62773 51.609198 L 67.87596 46.842563 z M -23.000147 52.253603 L -25.751917 57.020237 L -14.000179 57.020237 L -16.751949 52.253603 L -23.000147 52.253603 z M 0.99993871 52.253603 L -1.7518313 57.020237 L 9.9999062 57.020237 L 7.2481361 52.253603 L 0.99993871 52.253603 z M 25.000024 52.253603 L 22.247737 57.020237 L 33.999992 57.020237 L 31.247705 52.253603 L 25.000024 52.253603 z M 48.999593 52.253603 L 46.247823 57.020237 L 57.99956 57.020237 L 58.000077 57.020237 L 55.24779 52.253603 L 48.999593 52.253603 z M 72.999678 52.253603 L 70.247908 57.020237 L 81.999646 57.020237 L 79.247876 52.253603 L 72.999678 52.253603 z M -33.999992 59.020115 L -31.247705 63.786749 L -25.000025 63.786749 L -22.247738 59.020115 L -33.999992 59.020115 z M -19.503719 59.020115 L -22.628076 64.431154 L -19.87579 69.197788 L -13.999663 59.020115 L -19.503719 59.020115 z M -9.9999067 59.020115 L -7.2481366 63.786749 L -0.99993922 63.786749 L 1.7523476 59.020115 L 1.7518308 59.020115 L -9.9999067 59.020115 z M 4.4958494 59.020115 L 1.372009 64.431154 L 4.123779 69.197271 L 4.123779 69.197788 L 4.1242958 69.197788 L 9.9999062 59.020115 L 4.4958494 59.020115 z M 14.000179 59.020115 L 16.751949 63.786749 L 23.000146 63.786749 L 25.751916 59.020115 L 14.000179 59.020115 z M 28.495935 59.020115 L 25.372094 64.431154 L 28.123864 69.197788 L 33.999992 59.020115 L 28.495935 59.020115 z M 37.999747 59.020115 L 40.752034 63.786749 L 46.999715 63.786749 L 49.752002 59.020115 L 37.999747 59.020115 z M 52.49602 59.020115 L 49.371663 64.431154 L 52.12395 69.197788 L 58.000077 59.020115 L 52.49602 59.020115 z M 61.999833 59.020115 L 64.75212 63.786749 L 70.9998 63.786749 L 73.752087 59.020115 L 61.999833 59.020115 z M 76.495589 59.020115 L 73.371749 64.431154 L 76.124035 69.197788 L 81.999646 59.020115 L 76.495589 59.020115 z M -35.99987 59.080059 L -38.752157 63.846694 L -35.6278 69.257733 L -30.123743 69.257733 L -35.99987 59.080059 z M -11.999785 59.080059 L -14.752071 63.846694 L -11.627714 69.257733 L -6.1236575 69.257733 L -11.999785 59.080059 z M 11.999784 59.080059 L 11.999784 59.080576 L 9.2480141 63.846694 L 12.371854 69.257733 L 17.875911 69.257733 L 12.000301 59.080059 L 11.999784 59.080059 z M 35.99987 59.080059 L 33.247583 63.846694 L 36.37194 69.257733 L 41.875997 69.257733 L 35.99987 59.080059 z M 59.999955 59.080059 L 57.247668 63.846694 L 60.372025 69.257733 L 65.876082 69.257733 L 59.999955 59.080059 z M 84.00004 59.080059 L 81.247754 63.846694 L 84.371594 69.257733 L 89.875651 69.257733 L 84.00004 59.080059 z M -29.875696 66.142677 L -24.000086 76.320351 L -21.247799 71.553717 L -24.371639 66.142677 L -29.875696 66.142677 z M -5.8761274 66.142677 L -2.5388044e-07 76.320351 L 2.7522865 71.553717 L -0.3715538 66.142677 L -0.37207057 66.142677 L -5.8761274 66.142677 z M 18.123958 66.142677 L 24.000085 76.320351 L 26.751855 71.553717 L 23.628015 66.142677 L 18.123958 66.142677 z M 42.124044 66.142677 L 47.999654 76.320351 L 48.000171 76.319834 L 50.751941 71.553717 L 47.6281 66.142677 L 42.124044 66.142677 z M 66.123612 66.142677 L 71.999739 76.320351 L 74.752026 71.553717 L 71.628186 66.142677 L 66.123612 66.142677 z M -40.123649 66.202622 L -45.999776 76.380295 L -40.49572 76.380295 L -37.371879 70.969256 L -40.123649 66.202622 z M -16.124081 66.202622 L -21.999691 76.380295 L -16.495634 76.380295 L -13.371794 70.969256 L -16.124081 66.202622 z M 7.8760048 66.202622 L 1.9998777 76.380295 L 7.5039345 76.380295 L 7.5044512 76.380295 L 10.628292 70.969256 L 7.8760048 66.202622 z M 31.87609 66.202622 L 25.999963 76.380295 L 31.50402 76.380295 L 34.62786 70.969256 L 31.87609 66.202622 z M 55.875659 66.202622 L 50.000049 76.380295 L 55.504105 76.380295 L 58.627946 70.969256 L 55.875659 66.202622 z M 79.875744 66.202622 L 73.999617 76.380295 L 79.504191 76.380295 L 82.628031 70.969256 L 79.875744 66.202622 z M -34.999931 71.613661 L -37.751701 76.380295 L -25.999964 76.380295 L -28.751734 71.613661 L -34.999931 71.613661 z M -10.999846 71.613661 L -13.752132 76.380295 L -1.9998782 76.380295 L -4.752165 71.613661 L -10.999846 71.613661 z M 12.999723 71.613661 L 10.247953 76.380295 L 21.999691 76.380295 L 22.000207 76.380295 L 19.24792 71.613661 L 12.999723 71.613661 z M 36.999809 71.613661 L 34.248038 76.380295 L 45.999776 76.380295 L 43.248006 71.613661 L 36.999809 71.613661 z M 60.999894 71.613661 L 58.247607 76.380295 L 69.999861 76.380295 L 67.247575 71.613661 L 60.999894 71.613661 z M 84.999979 71.613661 L 82.247693 76.380295 L 93.999947 76.380295 L 91.24766 71.613661 L 84.999979 71.613661 z M -45.999776 78.380173 L -43.248006 83.146807 L -36.999809 83.146807 L -34.248039 78.380173 L -45.999776 78.380173 z M -31.50402 78.380173 L -34.627861 83.791213 L -31.876091 88.557847 L -25.999964 78.380173 L -31.50402 78.380173 z M -21.999691 78.380173 L -19.247921 83.146807 L -12.999724 83.146807 L -10.247954 78.380173 L -21.999691 78.380173 z M -7.503935 78.380173 L -10.627775 83.791213 L -7.8760053 88.557847 L -1.9998782 78.380173 L -7.503935 78.380173 z M 1.9998777 78.380173 L 4.7521645 83.146807 L 10.999845 83.146807 L 13.752132 78.380173 L 1.9998777 78.380173 z M 16.49615 78.380173 L 13.371793 83.791213 L 16.12408 88.557847 L 22.000207 78.380173 L 16.49615 78.380173 z M 25.999963 78.380173 L 28.751733 83.146807 L 34.999931 83.146807 L 37.752217 78.380173 L 25.999963 78.380173 z M 40.495719 78.380173 L 37.371879 83.791213 L 40.123649 88.55733 L 40.123649 88.557847 L 40.124166 88.557847 L 45.999776 78.380173 L 40.495719 78.380173 z M 50.000049 78.380173 L 52.751819 83.146807 L 59.000016 83.146807 L 61.751786 78.380173 L 50.000049 78.380173 z M 64.495805 78.380173 L 61.371964 83.791213 L 64.123734 88.557847 L 69.999861 78.380173 L 64.495805 78.380173 z M 73.999617 78.380173 L 76.751904 83.146807 L 82.999585 83.146807 L 85.751871 78.380173 L 73.999617 78.380173 z M 88.49589 78.380173 L 85.371533 83.791213 L 88.12382 88.557847 L 93.999947 78.380173 L 88.49589 78.380173 z M -24.000086 78.440118 L -26.751856 83.206752 L -23.628015 88.617791 L -18.123959 88.617791 L -24.000086 78.440118 z M -2.5388044e-07 78.440118 L -2.752287 83.206752 L 0.37207006 88.617791 L 5.8761269 88.617791 L -2.5388044e-07 78.440118 z M 24.000085 78.440118 L 21.247798 83.206752 L 24.372156 88.617791 L 29.876212 88.617791 L 24.000085 78.440118 z M 48.000171 78.440118 L 47.999654 78.440635 L 45.247884 83.206752 L 48.371724 88.617791 L 53.875781 88.617791 L 48.000171 78.440118 z M 71.999739 78.440118 L 69.247969 83.206752 L 72.37181 88.617791 L 77.875866 88.617791 L 71.999739 78.440118 z M -41.875997 85.502736 L -35.99987 95.680409 L -33.2481 90.913775 L -36.37194 85.502736 L -41.875997 85.502736 z M -17.875912 85.502736 L -11.999785 95.680409 L -9.2480146 90.913775 L -12.371855 85.502736 L -17.875912 85.502736 z M 6.1241737 85.502736 L 11.999784 95.680409 L 12.000301 95.679893 L 14.752071 90.913775 L 11.628231 85.502736 L 6.1241737 85.502736 z M 30.123742 85.502736 L 35.99987 95.680409 L 38.752156 90.913775 L 35.628316 85.502736 L 30.123742 85.502736 z M 54.123828 85.502736 L 59.999955 95.680409 L 62.751725 90.913775 L 59.627885 85.502736 L 54.123828 85.502736 z M 78.123913 85.502736 L 84.00004 95.680409 L 86.75181 90.913775 L 83.62797 85.502736 L 78.123913 85.502736 z M -28.123865 85.562681 L -33.999992 95.740354 L -28.495935 95.740354 L -25.372095 90.329315 L -28.123865 85.562681 z M -4.1237796 85.562681 L -9.9999067 95.740354 L -4.4958499 95.740354 L -1.3720095 90.329315 L -4.1237796 85.562681 z M 19.875789 85.562681 L 14.000179 95.740354 L 19.504236 95.740354 L 22.628076 90.329315 L 19.875789 85.562681 z M 43.875875 85.562681 L 37.999747 95.740354 L 43.504321 95.740354 L 46.628161 90.329315 L 43.875875 85.562681 z M 67.87596 85.562681 L 61.999833 95.740354 L 67.50389 95.740354 L 70.62773 90.329315 L 67.87596 85.562681 z M -23.000147 90.97372 L -25.751917 95.740354 L -14.000179 95.740354 L -16.751949 90.97372 L -23.000147 90.97372 z M 0.99993871 90.97372 L -1.7518313 95.740354 L 9.9999062 95.740354 L 7.2481361 90.97372 L 0.99993871 90.97372 z M 25.000024 90.97372 L 22.247737 95.740354 L 33.999992 95.740354 L 31.247705 90.97372 L 25.000024 90.97372 z M 48.999593 90.97372 L 46.247823 95.740354 L 58.000077 95.740354 L 55.24779 90.97372 L 48.999593 90.97372 z M 72.999678 90.97372 L 70.247908 95.740354 L 81.999646 95.740354 L 79.247876 90.97372 L 72.999678 90.97372 z "
     transform="translate(2.5388044e-7,0.06)" /></svg>
